PathFileType	4	(X/Y/Z)	C:\Users\WrightLab\Desktop\Jo\P2_Trial8.trc
DataRate	CameraRate	NumFrames	NumMarkers	Units	OrigDataRate	OrigDataStartFrame	OrigNumFrames
100.00	100.00	       23	19	mm	100.00	234	       932
Frame#	Time	Headset_Front			Headset_Back			Headset_Left			Headset_Right			Left_Shoulder			Right_Shoulder			Sternum			C7			Left Elbow			Right Elbow			Left Wrist			Right Wrist			Left ASIS			Right ASIS			S2			Left Knee			Right Knee			Left Ankle			Right Ankle			
		X1	Y1	Z1	X2	Y2	Z2	X3	Y3	Z3	X4	Y4	Z4	X5	Y5	Z5	X6	Y6	Z6	X7	Y7	Z7	X8	Y8	Z8	X9	Y9	Z9	X10	Y10	Z10	X11	Y11	Z11	X12	Y12	Z12	X13	Y13	Z13	X14	Y14	Z14	X15	Y15	Z15	X16	Y16	Z16	X17	Y17	Z17	X18	Y18	Z18	X19	Y19	Z19	

234	2.330							44.22636	1632.29736	1521.51404				39.08689	1488.13110	1580.68494	368.49390	1496.68726	1560.93958	207.19878	1371.46240	1509.72888	218.79182	1488.08240	1673.89294	-85.12777	1236.68433	1644.87061	488.87103	1215.98291	1648.16125	-124.74987	1328.48242	1545.14087	470.20789	1224.54187	1436.47449	164.49294	1092.11560	1490.61365	291.75821	1076.08679	1498.86536	176.76883	1003.26752	1750.10962	62.19789	508.09177	1497.21667	368.29453	579.60913	1685.94849	-13.67436	217.16322	1657.16626	324.97498	146.72380	1721.42603	
235	2.340							45.78704	1632.63867	1519.58557				40.67245	1487.99976	1579.02771	370.03961	1496.48474	1558.99268	207.84097	1371.62476	1507.57605	219.88342	1488.46631	1672.94910	-82.89185	1235.61877	1642.18005				-122.68500	1329.33179	1544.24353	471.44543	1224.28406	1433.72083	164.52562	1092.52698	1486.83020	291.73505	1075.78162	1495.88672	177.41641	1003.38672	1747.68481	62.52403	508.14597	1490.80249	368.52539	579.39911	1684.67224	-7.82937	215.17035	1649.12744	325.72861	146.22995	1720.58081	
236	2.350							46.99058	1632.40649	1518.39331				41.81384	1487.46680	1577.73315	371.30826	1496.41956	1556.54016	208.61774	1371.64050	1505.81738	222.23401	1488.23511	1670.37769	-82.06257	1236.78577	1641.09814	491.43512	1214.67798	1642.32837	-120.41602	1329.48425	1542.01538	472.30533	1224.22754	1430.11267	164.68871	1092.38464	1485.59192	291.39490	1075.94006	1492.68103	177.86638	1003.40271	1745.67920	63.65227	508.68216	1484.55347	368.93051	579.49298	1684.18823	-4.00610	213.05833	1639.18982	326.54636	146.32309	1719.87012	
237	2.360							48.59079	1632.45740	1516.82153				42.82922	1487.56787	1576.37366	372.84534	1495.81128	1554.94861	209.95494	1371.62476	1504.29883	223.37851	1488.51843	1669.64294	-80.20991	1236.19714	1638.59705	491.61487	1213.62219	1638.77075	-119.34476	1330.31763	1541.86340	472.80600	1223.71643	1426.63611	165.04274	1092.61414	1483.35315	291.73090	1075.58459	1492.68542	178.73918	1003.07654	1743.33582	64.53635	509.18488	1478.43884	370.50781	577.96564	1681.86682	1.61805	210.16890	1628.95471	328.07507	145.43945	1718.05042	
238	2.370							49.71534	1632.76672	1516.04822				44.43196	1487.91956	1574.36780	374.97876	1495.15002	1552.58862	210.75301	1371.95642	1502.04163	225.34779	1487.74097	1667.47021	-79.45033	1235.95947	1637.98108	492.88159	1212.64282	1635.91418	-116.75541	1329.27515	1538.60364	472.95309	1223.26831	1423.32031	165.14648	1091.74109	1480.98206	292.06522	1074.42468	1489.40979	179.27979	1003.36523	1741.92029	64.87122	509.14636	1472.78076	371.01071	577.60547	1680.41443	7.01460	206.18095	1618.44641	329.02478	144.60022	1716.55957	
239	2.380							51.38644	1632.98145	1514.17847				44.57585	1490.90747	1577.10046	375.56348	1494.60071	1549.62427	211.58119	1371.56165	1499.58752	227.25797	1487.34790	1664.99329	-76.87709	1234.94836	1634.73950	492.98648	1211.27112	1631.82324	-115.95201	1329.18530	1537.96985	473.39868	1222.88855	1420.58777	165.86200	1092.02881	1479.59705	291.99643	1074.55151	1487.78662	180.29034	1003.72290	1739.35669	64.95909	509.35602	1467.26221	370.82498	577.54022	1678.29016	12.72978	201.57776	1607.88953	329.84253	144.42642	1715.48584	
240	2.390							52.87653	1633.02856	1512.75952				46.40320	1490.19629	1575.90137	376.51331	1494.32300	1546.64294	212.11339	1371.68176	1497.19470	228.62761	1487.32568	1663.03210	-75.62691	1234.50598	1635.09460	494.22925	1210.02039	1628.21033	-114.10523	1327.91113	1535.05334	473.76056	1222.31116	1416.99182	164.34750	1092.06189	1476.24597	292.30270	1075.15076	1483.94775	180.88289	1003.48798	1738.02979	65.34760	509.68011	1461.42090	371.01010	577.35938	1676.88123	18.91708	195.79895	1596.11023	331.02725	144.34097	1714.32898	
241	2.400							54.17061	1633.06165	1511.39661				47.36956	1490.32544	1574.61987	378.07968	1493.68604	1544.49915	213.07712	1371.39685	1495.26318	230.55614	1486.96045	1660.33813	-73.18798	1234.56567	1632.75305	495.62668	1209.56067	1625.28284	-113.38007	1327.05225	1533.68713	474.10724	1221.47424	1414.12939	165.45238	1092.30884	1473.10205	292.55167	1074.08606	1482.65088	182.04825	1002.93549	1735.66333	65.23582	510.01230	1456.45850	372.12939	576.98621	1675.75183	24.11447	190.40173	1583.06726	332.42728	144.11815	1712.59302	
242	2.410							55.21125	1632.93628	1510.35864				48.33778	1490.60693	1572.82886	379.09665	1492.99353	1541.91956	213.98688	1371.35352	1493.24353	231.47902	1486.94495	1658.89453				495.24271	1208.03735	1621.57483	-111.63313	1325.01685	1529.92249	474.22125	1220.44788	1410.35791	165.93472	1092.48926	1472.72424	292.34235	1073.46008	1480.47949	182.75996	1002.98505	1733.34985	64.94463	510.89401	1451.97766	372.27820	576.72034	1674.69519	30.70800	184.56161	1571.88599	334.04034	143.78026	1711.04480	
243	2.420							56.77729	1633.30505	1507.99292				49.77876	1490.57629	1569.91174	380.22452	1492.52563	1538.92664	214.73550	1370.93787	1490.80884	233.71428	1486.16943	1655.49597	-69.76427	1232.59570	1629.90308	496.29739	1207.10022	1618.47229	-111.24506	1324.07727	1527.77869	474.38745	1220.33508	1406.66162	165.83571	1092.37146	1468.91333	292.55762	1073.20239	1477.29773	183.34717	1002.95984	1730.81165	64.24836	511.85583	1446.85107	372.52539	575.51807	1670.64355	35.21498	178.58441	1558.09668	335.15741	142.97705	1708.40271	
244	2.430							58.18593	1633.29126	1505.91907				50.83913	1489.94360	1567.51624	381.70874	1491.44604	1536.13525	215.35773	1370.48254	1488.00488	234.91481	1485.69958	1653.53528	-67.90467	1232.00342	1626.85913	497.75662	1206.13489	1615.37854	-109.43105	1321.38367	1523.18835	474.21545	1219.32776	1403.03406	165.97125	1091.57776	1467.41125	292.70578	1072.84863	1474.67639	183.54587	1002.60870	1728.93665	64.33548	513.31866	1443.12866	372.82370	575.69122	1670.08118	40.87513	171.74071	1544.33118	337.26395	142.23221	1707.34229	
245	2.440							59.35624	1633.24219	1504.30872				51.93979	1489.76685	1565.26489	383.68295	1490.79248	1534.06714	215.96591	1369.97937	1485.55334	236.31242	1485.32178	1650.79639				497.19910	1204.52087	1610.93066	-108.38979	1319.42261	1520.70215	474.27347	1218.39392	1399.26611	165.47675	1090.76355	1466.14380	292.97620	1071.42188	1472.49585	184.35457	1001.90625	1725.55420	65.33925	514.12848	1439.13379	373.26938	575.95770	1669.28870	46.68970	165.82088	1530.06384	338.55362	141.45255	1705.73645	
246	2.450							61.10079	1633.22937	1501.61658				52.83796	1489.09070	1562.99011	384.08813	1489.62451	1531.02466	216.64034	1369.86865	1482.61243	237.05223	1485.57935	1648.56555				497.67972	1203.27209	1607.11816	-107.47224	1317.02429	1517.81677	474.04852	1217.70203	1395.84521	166.44086	1090.87231	1463.46289	293.23315	1071.88867	1469.23218	184.70993	1002.10406	1723.19666	66.12933	514.00458	1436.42297	373.67822	575.22192	1667.33752	53.31050	160.79967	1514.76990	340.34534	140.68819	1704.31360	
247	2.460							61.86198	1633.58276	1500.42236				53.53121	1488.65833	1560.14978	384.65381	1489.37805	1526.99048	217.47234	1369.53601	1480.41736	239.39491	1484.70044	1646.61792				497.72110	1201.28564	1603.49512	-105.85046	1313.63794	1513.45581	473.79785	1216.33704	1392.11023	165.93822	1090.04797	1460.65942	293.00641	1070.92810	1466.01599	185.57332	1001.74084	1720.43958	67.21606	513.61755	1434.39990	374.69302	573.82037	1664.97925	58.37829	156.83578	1498.77417	341.89014	140.61597	1700.87183	
248	2.470							63.32311	1633.10535	1498.01990				54.89331	1488.51746	1557.23999	385.41827	1487.02576	1523.82275	218.10966	1368.99414	1476.97595	239.99712	1483.98901	1643.24573				499.68011	1200.96313	1599.48059	-105.46638	1312.08203	1511.07349	473.74631	1215.47351	1388.81860	165.62683	1090.35925	1457.66443	293.39923	1070.40942	1464.40649	185.88522	1001.52594	1719.19641	69.30406	512.95612	1433.78796	375.14725	573.70618	1663.69385	65.45903	153.21342	1482.73523	343.48206	140.08957	1699.59668	
249	2.480							64.71347	1632.67957	1495.39624				56.15966	1486.82178	1552.54053	386.29922	1486.30908	1520.35181	218.59805	1368.28406	1473.90552	241.45084	1483.72253	1640.84497				499.41599	1199.23486	1595.82104	-104.08438	1309.16626	1506.29614	473.45255	1214.02539	1384.56995	166.55156	1089.23743	1455.13159	292.86853	1068.93994	1461.44434	186.69931	1000.65485	1715.86658	72.27757	512.28052	1433.55469	375.01199	573.49438	1662.71521	70.77425	151.92729	1467.05139	345.02808	139.14091	1697.30139	
250	2.490	209.38408	1554.52380	1332.86755				65.39447	1632.32300	1493.63269				56.84421	1487.38342	1551.85449	387.00748	1485.62073	1516.77551	218.72066	1367.85425	1471.24854	242.49413	1483.21936	1637.49023							-102.93566	1306.47424	1502.22021	473.20700	1212.95410	1380.07239	167.02029	1088.68591	1453.85156	292.48660	1068.67981	1459.02490	186.66916	1000.71246	1712.89575	74.40504	511.32010	1432.87573	375.41415	572.95050	1660.42371	77.60986	150.50793	1450.97375	345.95847	138.46831	1695.65833	
251	2.500	209.14992	1553.40784	1328.94983				66.53098	1632.17358	1490.41895				57.95383	1486.93762	1549.31873	387.21796	1484.37683	1513.97144	219.30327	1366.96350	1467.52405	243.44794	1482.62756	1634.44495							-101.98447	1303.17432	1498.97607	472.89056	1212.04810	1376.87671	166.06686	1089.04541	1450.84326	292.51434	1068.38684	1454.32251	187.32426	999.56909	1709.20593	77.08663	510.93280	1431.33472	375.57977	571.48297	1657.31970	80.86168	151.74516	1435.47070	347.33060	137.92145	1692.60486	
252	2.510	208.38153	1552.19153	1325.64294				67.44951	1631.69141	1487.20374				58.29915	1486.57141	1547.41882	387.92911	1484.13965	1510.72900	220.38609	1366.35876	1464.89648	244.63268	1482.44714	1631.54150							-100.53333	1300.42468	1493.78809	472.69852	1211.03320	1372.82056	166.17091	1087.69519	1446.78467	292.02945	1068.27197	1451.18701	187.50513	999.11493	1707.20776	79.79890	510.40976	1429.62341	376.08374	571.38763	1655.52039	85.97350	151.70331	1420.33582	348.40924	137.23663	1691.00061	
253	2.520							68.33731	1630.81091	1483.77124				59.12388	1485.77625	1544.20618	389.39554	1484.38574	1507.66626	220.74963	1365.68518	1461.96570	245.23947	1481.67310	1628.37048							-100.29237	1299.41162	1492.11499	472.10040	1210.28308	1368.87329	165.76324	1087.91785	1443.37891	292.33514	1067.66138	1448.64929	187.96695	999.56622	1704.41431	82.57893	510.38913	1427.92554	376.23941	571.77313	1654.73083	90.24899	152.41064	1405.05444	349.45541	137.00787	1687.57776	
254	2.530				211.30573	1551.83606	1319.46692	69.00853	1630.52185	1480.24707				59.59239	1485.44031	1540.99927	390.31689	1483.45496	1503.59644	221.00221	1364.98071	1458.36401	246.08598	1480.93909	1625.21790							-99.26649	1296.56470	1487.73584	471.63483	1209.34851	1365.06360	165.69543	1087.23279	1441.02026	291.66742	1066.68579	1443.83789	188.18051	998.87097	1701.29736	85.53112	510.96362	1427.01758	378.01624	571.60425	1650.65173	93.63535	153.38429	1389.83081	350.10132	136.69098	1685.30334	
255	2.540				211.68571	1550.69849	1316.07251	69.43743	1629.90125	1477.42249				60.14111	1484.84595	1537.22192	390.55389	1482.25586	1500.69067	220.96674	1364.48669	1455.07874	246.66570	1480.32739	1621.52039							-98.81756	1294.06104	1484.94543	470.19275	1207.14722	1360.10815	165.58395	1086.83862	1437.91260	292.88297	1066.53235	1441.21838	188.58145	997.97473	1697.15369	88.70798	509.53183	1424.32947	379.10394	571.24548	1647.91736	96.94102	154.50967	1375.53748	351.56348	135.85187	1682.95105	
256	2.550				212.15025	1550.58093	1313.39734	70.60006	1629.57397	1473.46301				60.42693	1483.90283	1533.69043	391.08459	1481.58948	1496.59961	220.96248	1363.95349	1450.76892	247.03906	1479.52454	1617.73877				498.20700	1191.76685	1566.45447	-98.75853	1292.17029	1481.88708	471.26920	1207.07092	1356.38745	165.53775	1085.77612	1433.78247	293.56180	1065.41565	1438.56299	188.97305	997.44098	1694.49512	91.80202	508.08649	1421.76233	377.70465	570.22656	1646.05823	100.64912	155.85806	1361.15930	351.70038	134.90300	1682.74011	
